<svg width="21" height="29" viewBox="0 0 21 29" fill="none" xmlns="http://www.w3.org/2000/svg">
<path d="M19.1359 2.41748H14.5049V0.436893C14.5049 0.203883 14.301 0 14.068 0H7.16505C6.93204 0 6.72816 0.203883 6.72816 0.436893V2.41748H1.83495C0.815534 2.41748 0 3.23301 0 4.25243V26.2136C0 27.233 0.815534 28.0485 1.83495 28.0485H19.165C20.1845 28.0485 21 27.233 21 26.2136V4.25243C20.9709 3.23301 20.1553 2.41748 19.1359 2.41748ZM7.16505 8.06796H14.068C14.301 8.06796 14.5049 7.86408 14.5049 7.63107V5.73786H17.5631V24.5825H3.40777V5.76699H6.72816V7.63107C6.72816 7.8932 6.93204 8.06796 7.16505 8.06796ZM13.6311 0.873786V5.30097V7.19417H7.60194V5.30097V2.82524V0.873786H13.6311ZM20.0971 26.1845C20.0971 26.7087 19.6602 27.1456 19.1359 27.1456H1.83495C1.31068 27.1456 0.873786 26.7087 0.873786 26.1845V4.25243C0.873786 3.72815 1.31068 3.29126 1.83495 3.29126H6.72816V4.8932H2.97087C2.73786 4.8932 2.53398 5.09709 2.53398 5.3301V25.0485C2.53398 25.2816 2.73786 25.4854 2.97087 25.4854H18C18.233 25.4854 18.4369 25.2816 18.4369 25.0485V5.3301C18.4369 5.09709 18.233 4.8932 18 4.8932H14.5049V3.29126H19.1359C19.6602 3.29126 20.0971 3.72815 20.0971 4.25243V26.1845Z" fill="black"/>
<path d="M4.48535 12.9903C4.48535 13.2233 4.68924 13.4272 4.92224 13.4272H16.1358C16.3688 13.4272 16.5727 13.2233 16.5727 12.9903C16.5727 12.7573 16.3688 12.5534 16.1358 12.5534H4.92224C4.68924 12.5534 4.48535 12.7573 4.48535 12.9903Z" fill="black"/>
<path d="M16.1358 15.6116H4.92224C4.68924 15.6116 4.48535 15.8155 4.48535 16.0485C4.48535 16.2815 4.68924 16.4854 4.92224 16.4854H16.1358C16.3688 16.4854 16.5727 16.2815 16.5727 16.0485C16.5727 15.8155 16.3688 15.6116 16.1358 15.6116Z" fill="black"/>
<path d="M16.1358 18.8156H4.92224C4.68924 18.8156 4.48535 19.0194 4.48535 19.2524C4.48535 19.4855 4.68924 19.6893 4.92224 19.6893H16.1358C16.3688 19.6893 16.5727 19.4855 16.5727 19.2524C16.5727 19.0194 16.3688 18.8156 16.1358 18.8156Z" fill="black"/>
</svg>
