<svg width="30" height="30" viewBox="0 0 30 30" fill="none" xmlns="http://www.w3.org/2000/svg">
<path fill-rule="evenodd" clip-rule="evenodd" d="M14.0903 0L13.987 0.0293333L13.8763 0.00666667L13.815 0.078L8.55066 1.57267L8.26741 1.87133L6.86785 6.938L1.88408 8.35267L1.68681 8.416L1.67014 8.51L1.51086 8.66L0 14.13L0.1073 14.536L3.76749 18.1653L2.39858 23.1227L2.33394 23.196L2.3586 23.2867L2.34193 23.36L2.39258 23.41L2.46523 23.678L6.41199 27.5907L6.8172 27.6947L11.9169 26.2467L15.5878 29.8853L15.7871 29.908L15.8797 30L21.36 28.4433L21.6626 28.316L21.6366 28.2227L21.7225 28.1613L23.1314 23.0633L28.2178 21.6187L28.3311 21.4667L28.4518 21.4347L29.9906 15.8653L29.88 15.4593L26.2291 11.84L27.6427 6.724L27.5194 6.31067L23.584 2.41L23.1761 2.30733L18.0757 3.75533L14.4115 0.122667L14.1562 0.0666667L14.0903 0ZM9.2531 2.548L13.2472 1.414L12.1362 5.442L8.14079 6.576L9.2531 2.548ZM3.12436 9.176L12.7687 6.43733L12.9579 6.366L12.9826 6.262L13.1266 6.10533L14.3542 1.65867L17.2679 4.54733L15.979 9.21333L6.01412 12.042L3.12436 9.176ZM18.9967 4.66933L23.0854 3.50733L25.9772 6.374L21.8871 7.53533L18.9967 4.66933ZM15.6084 14.8073L18.1896 5.46067L21.1287 8.374L18.5475 17.7207L15.6084 14.8073ZM19.4686 18.6347L22.2364 8.612L26.2631 7.46733L23.5666 17.2293L23.6673 17.648L26.8729 20.826L22.8355 21.972L19.4686 18.6347ZM1.20229 14.03L2.32127 9.97267L5.23303 12.858L4.11271 16.916L1.20229 14.03ZM6.33135 13.1273L15.6271 10.4887L14.5148 14.52L5.21903 17.1587L6.33135 13.1273ZM24.7642 17.1433L25.8852 13.0907L28.7883 15.9693L27.6673 20.0227L24.7642 17.1433ZM10.7706 16.758L14.8127 15.6107L21.5866 22.326L17.5445 23.474L10.7706 16.758ZM4.86714 18.4347L9.52235 17.112L16.7394 24.2673L15.6184 28.3247L8.60864 21.3733L8.42936 21.2573L8.33472 21.2833L8.13012 21.2553L3.7435 22.502L4.86714 18.4347ZM3.99675 23.604L8.0828 22.444L10.9966 25.334L6.91117 26.4933L3.99675 23.604ZM17.8304 24.568L21.8572 23.4247L20.7475 27.4413L16.7201 28.5853L17.8304 24.568Z" fill="#009EE2"/>
</svg>
