<svg width="24" height="23" viewBox="0 0 24 23" fill="none" xmlns="http://www.w3.org/2000/svg">
<path d="M23.8912 19.4976C23.9142 19.4543 23.9334 19.412 23.9476 19.3652C23.9611 19.3208 23.9683 19.2767 23.9734 19.2297C23.979 19.1785 23.9799 19.1292 23.9748 19.0771C23.9725 19.0538 23.9799 19.0318 23.9754 19.0083L22.1443 9.52637C22.1377 9.49231 22.1174 9.46594 22.1066 9.43396C22.0961 9.4024 22.0968 9.36957 22.0818 9.33887C22.0743 9.32336 22.0602 9.31421 22.0517 9.2995C22.0245 9.25165 21.9905 9.21228 21.9542 9.17218C21.9249 9.14001 21.8983 9.1076 21.8644 9.08136C21.8234 9.04938 21.7784 9.02747 21.7315 9.00464C21.6907 8.98474 21.6523 8.96454 21.6088 8.95227C21.5649 8.94 21.5201 8.93738 21.4736 8.93341C21.4198 8.92847 21.3679 8.92535 21.3135 8.93243C21.2971 8.93457 21.282 8.92896 21.2654 8.93213C21.2325 8.93848 21.2073 8.9585 21.1763 8.96881C21.144 8.97961 21.1103 8.979 21.0789 8.99463L18.3265 10.3401C18.766 9.46344 19.1248 8.37433 19.1248 7.13428C19.1248 3.21289 15.9461 0.0205078 12.032 0C12.0223 0 12.0145 0 12.0066 0C11.9988 0 11.991 0 11.9813 0C8.06622 0.0205078 4.88751 3.21289 4.88751 7.13428C4.88751 8.36273 5.24023 9.44324 5.67474 10.3162L2.24102 11.9946C2.22674 12.0016 2.21832 12.0147 2.20471 12.0225C2.15301 12.0515 2.10949 12.0881 2.06622 12.1286C2.03698 12.156 2.00781 12.1812 1.98358 12.2124C1.95263 12.2524 1.93072 12.2968 1.90814 12.3432C1.88647 12.3874 1.86639 12.4299 1.85369 12.4774C1.84906 12.4949 1.83728 12.5083 1.8338 12.5264L0.00274267 22.0083C-0.00183493 22.0322 0.00561132 22.0545 0.00335302 22.0782C-0.00177398 22.1293 -0.000797372 22.1785 0.00475683 22.2303C0.010311 22.2809 0.0195883 22.3279 0.0349692 22.3755C0.0423545 22.3989 0.0397911 22.4229 0.0496177 22.4458C0.062252 22.4752 0.0827597 22.4978 0.0985068 22.5247C0.112423 22.5485 0.124752 22.5716 0.14117 22.5937C0.187984 22.6569 0.241939 22.7117 0.304012 22.7562C0.312008 22.762 0.317623 22.77 0.325863 22.7754C0.400204 22.8245 0.483395 22.8557 0.570003 22.8758C0.579647 22.8781 0.586727 22.8848 0.596493 22.8867C0.644344 22.8958 0.69128 22.9 0.73724 22.9001C0.73785 22.9001 0.73846 22.9004 0.739071 22.9004C0.739193 22.9004 0.739254 22.9003 0.739376 22.9003C0.73962 22.9003 0.739803 22.9004 0.740047 22.9004C0.8363 22.9004 0.928036 22.8785 1.0144 22.8441C1.02118 22.8414 1.02826 22.8427 1.03497 22.8398L7.76593 19.9551L15.9891 22.8574C15.9947 22.8594 16.0004 22.8585 16.0061 22.8604C16.0811 22.8849 16.159 22.9004 16.2391 22.9004C16.3311 22.9004 16.4194 22.8785 16.5038 22.8463C16.514 22.8424 16.5248 22.8442 16.535 22.8398L23.535 19.8398C23.5575 19.8302 23.5719 19.8113 23.593 19.7997C23.6376 19.7753 23.6768 19.7477 23.715 19.7154C23.7521 19.684 23.7855 19.6525 23.8154 19.6152C23.8453 19.5781 23.8688 19.5396 23.8912 19.4976ZM3.23553 13.1779L6.4555 11.604L7.81823 13.4574L7.30102 18.5219L1.74359 20.9036L3.23553 13.1779ZM8.30224 18.5539L8.70025 14.657L11.3895 18.3145C11.5311 18.5068 11.7811 18.6201 12.0193 18.6201C12.2576 18.6201 12.4822 18.5063 12.6238 18.3145L15.0132 15.0641L15.6338 21.1415L8.30224 18.5539ZM16.6404 21.1621L15.8951 13.8643L16.6596 12.8243L20.8574 10.7723L22.3881 18.6989L16.6404 21.1621ZM12.0066 1.5C15.1063 1.50684 17.6248 4.03174 17.6248 7.13428C17.6248 8.59863 16.9725 9.83398 16.4197 10.6187C16.4178 10.6211 16.4158 10.623 16.4139 10.6255L12.0066 16.6211L7.61505 10.6479C7.61212 10.6445 7.61016 10.6411 7.60723 10.6377C7.05059 9.85352 6.38751 8.60938 6.38751 7.13428C6.38751 4.03174 8.90704 1.50684 12.0066 1.5Z" fill="#1D1D1B"/>
<path d="M12.0195 10.2974C13.7607 10.2974 15.1777 8.87842 15.1777 7.13428C15.1777 5.39014 13.7607 3.97119 12.0195 3.97119C10.2773 3.97119 8.86035 5.39014 8.86035 7.13428C8.86035 8.87842 10.2773 10.2974 12.0195 10.2974ZM12.0195 4.97119C13.21 4.97119 14.1777 5.94141 14.1777 7.13428C14.1777 8.32715 13.21 9.29736 12.0195 9.29736C10.8291 9.29736 9.86035 8.32715 9.86035 7.13428C9.86035 5.94141 10.8291 4.97119 12.0195 4.97119Z" fill="#1D1D1B"/>
</svg>
