<svg width="21" height="21" viewBox="0 0 21 21" fill="none" xmlns="http://www.w3.org/2000/svg">
<path d="M10.9543 14.7308C9.8637 14.3486 8.7339 14.3017 8.4 13.3V11.9C8.715 11.7439 9.6152 10.6715 9.7104 9.83361C9.7664 9.63551 9.8098 8.92711 9.8098 8.76751C9.8098 7.89321 9.7965 6.08581 10.3439 4.67111C10.1528 3.72051 9.6537 2.91971 8.5834 2.81401C8.2971 2.34011 7.5635 2.10001 6.6094 2.10001C2.7937 2.16581 2.4038 4.81111 3.1696 7.84981C3.0212 7.93521 2.7762 8.20681 2.8378 8.68841C2.9526 9.58651 3.3418 9.81401 3.5896 9.83291C3.6841 10.6715 4.585 11.7439 4.9 11.9V13.3C4.2 15.4 0 13.3 0 18.9H8.4C8.4 16.4164 9.793 15.3461 10.9543 14.7308Z" fill="black"/>
<path d="M9.7998 18.9C9.7998 15.4 13.2998 16.1 13.9998 14.2051V13.3126C11.4651 13.3126 10.7616 12.2689 10.7616 12.2689C12.086 11.1671 9.5814 3.5 14.0908 3.5C14.0908 3.5 14.6998 2.8 15.4866 2.8C20.9998 2.8 18.512 11.1251 19.9379 12.2955C19.9379 12.2955 19.3471 13.3035 16.7998 13.3035V14.2051C17.4998 16.1 20.9998 15.4 20.9998 18.9H9.7998Z" fill="black"/>
</svg>
