<svg width="58" height="58" viewBox="0 0 58 58" fill="none" xmlns="http://www.w3.org/2000/svg">
<path d="M39.875 25.375H32.625V18.125C32.625 17.1636 32.2431 16.2416 31.5633 15.5617C30.8834 14.8819 29.9614 14.5 29 14.5C28.0386 14.5 27.1166 14.8819 26.4367 15.5617C25.7569 16.2416 25.375 17.1636 25.375 18.125V25.375H18.125C17.1636 25.375 16.2416 25.7569 15.5617 26.4367C14.8819 27.1166 14.5 28.0386 14.5 29C14.5 29.9614 14.8819 30.8834 15.5617 31.5633C16.2416 32.2431 17.1636 32.625 18.125 32.625H25.375V39.875C25.375 40.8364 25.7569 41.7584 26.4367 42.4383C27.1166 43.1181 28.0386 43.5 29 43.5C29.9614 43.5 30.8834 43.1181 31.5633 42.4383C32.2431 41.7584 32.625 40.8364 32.625 39.875V32.625H39.875C40.8364 32.625 41.7584 32.2431 42.4383 31.5633C43.1181 30.8834 43.5 29.9614 43.5 29C43.5 28.0386 43.1181 27.1166 42.4383 26.4367C41.7584 25.7569 40.8364 25.375 39.875 25.375Z" fill="black"/>
<path d="M29 0C23.2644 0 17.6575 1.70082 12.8885 4.88738C8.11945 8.07394 4.40245 12.6031 2.20751 17.9022C0.0125653 23.2012 -0.561731 29.0322 0.55724 34.6576C1.67621 40.2831 4.43819 45.4504 8.49391 49.5061C12.5496 53.5618 17.7169 56.3238 23.3424 57.4428C28.9678 58.5617 34.7988 57.9874 40.0978 55.7925C45.3969 53.5976 49.9261 49.8806 53.1126 45.1115C56.2992 40.3425 58 34.7357 58 29C57.9918 21.3112 54.9338 13.9397 49.4971 8.50294C44.0603 3.06617 36.6888 0.00818825 29 0V0ZM29 50.75C24.6983 50.75 20.4931 49.4744 16.9164 47.0845C13.3396 44.6945 10.5518 41.2976 8.90563 37.3234C7.25943 33.3491 6.8287 28.9759 7.66793 24.7568C8.50716 20.5377 10.5786 16.6622 13.6204 13.6204C16.6622 10.5786 20.5377 8.50715 24.7568 7.66792C28.9759 6.82869 33.3491 7.25941 37.3234 8.90562C41.2977 10.5518 44.6945 13.3396 47.0845 16.9163C49.4744 20.4931 50.75 24.6983 50.75 29C50.7437 34.7665 48.4502 40.2951 44.3726 44.3726C40.2951 48.4502 34.7665 50.7437 29 50.75Z" fill="black"/>
</svg>
