<svg width="21" height="21" viewBox="0 0 21 21" fill="none" xmlns="http://www.w3.org/2000/svg">
<path d="M14.4375 9.1875H11.8125V6.5625C11.8125 6.2144 11.6742 5.88056 11.4281 5.63442C11.1819 5.38828 10.8481 5.25 10.5 5.25C10.1519 5.25 9.81806 5.38828 9.57192 5.63442C9.32578 5.88056 9.1875 6.2144 9.1875 6.5625V9.1875H6.5625C6.2144 9.1875 5.88056 9.32578 5.63442 9.57192C5.38828 9.81806 5.25 10.1519 5.25 10.5C5.25 10.8481 5.38828 11.1819 5.63442 11.4281C5.88056 11.6742 6.2144 11.8125 6.5625 11.8125H9.1875V14.4375C9.1875 14.7856 9.32578 15.1194 9.57192 15.3656C9.81806 15.6117 10.1519 15.75 10.5 15.75C10.8481 15.75 11.1819 15.6117 11.4281 15.3656C11.6742 15.1194 11.8125 14.7856 11.8125 14.4375V11.8125H14.4375C14.7856 11.8125 15.1194 11.6742 15.3656 11.4281C15.6117 11.1819 15.75 10.8481 15.75 10.5C15.75 10.1519 15.6117 9.81806 15.3656 9.57192C15.1194 9.32578 14.7856 9.1875 14.4375 9.1875Z" fill="black"/>
<path d="M10.5 0C8.4233 0 6.39323 0.615814 4.66652 1.76957C2.9398 2.92332 1.59399 4.5632 0.79927 6.48182C0.0045495 8.40045 -0.203386 10.5116 0.201759 12.5484C0.606904 14.5852 1.60693 16.4562 3.07538 17.9246C4.54383 19.3931 6.41476 20.3931 8.45156 20.7982C10.4884 21.2034 12.5996 20.9955 14.5182 20.2007C16.4368 19.406 18.0767 18.0602 19.2304 16.3335C20.3842 14.6068 21 12.5767 21 10.5C20.997 7.71614 19.8898 5.04714 17.9213 3.07865C15.9529 1.11016 13.2839 0.00296471 10.5 0V0ZM10.5 18.375C8.94248 18.375 7.41993 17.9131 6.12489 17.0478C4.82985 16.1825 3.82049 14.9526 3.22445 13.5136C2.62841 12.0747 2.47246 10.4913 2.77632 8.96366C3.08018 7.43606 3.8302 6.03287 4.93154 4.93153C6.03288 3.83019 7.43607 3.08017 8.96367 2.77632C10.4913 2.47246 12.0747 2.62841 13.5136 3.22445C14.9526 3.82049 16.1825 4.82985 17.0478 6.12488C17.9131 7.41992 18.375 8.94247 18.375 10.5C18.3727 12.5879 17.5423 14.5896 16.066 16.066C14.5896 17.5423 12.5879 18.3727 10.5 18.375Z" fill="black"/>
</svg>
