<svg width="21" height="20" viewBox="0 0 21 20" fill="none" xmlns="http://www.w3.org/2000/svg">
<path d="M11.3086 19.3862C11.0944 19.3862 10.8889 19.3011 10.7375 19.1496C10.586 18.9982 10.5009 18.7927 10.5009 18.5785C10.5009 18.3642 10.586 18.1588 10.7375 18.0073C10.8889 17.8558 11.0944 17.7707 11.3086 17.7707C13.1176 17.771 14.8744 17.164 16.2973 16.0471C17.7203 14.9301 18.7272 13.3678 19.1566 11.6105C19.586 9.85325 19.4131 8.00268 18.6656 6.35535C17.9181 4.70802 16.6393 3.35929 15.034 2.52526C13.4287 1.69123 11.59 1.42019 9.81235 1.75556C8.03471 2.09093 6.42111 3.01331 5.23008 4.37489C4.03905 5.73647 3.33954 7.45844 3.24364 9.26489C3.14773 11.0713 3.66099 12.8577 4.70116 14.3377C4.8238 14.5125 4.87225 14.7287 4.83592 14.9391C4.79959 15.1495 4.68144 15.337 4.5073 15.4605C4.42048 15.5225 4.32224 15.5667 4.21826 15.5905C4.11428 15.6143 4.00661 15.6173 3.90147 15.5993C3.79632 15.5812 3.6958 15.5426 3.60568 15.4855C3.51557 15.4284 3.43765 15.354 3.37643 15.2667C2.12831 13.4907 1.5124 11.3473 1.62739 9.17965C1.74237 7.01204 2.58159 4.94576 4.0106 3.31185C5.43961 1.67794 7.3757 0.570959 9.50867 0.168271C11.6416 -0.234417 13.8481 0.0904902 15.7744 1.09094C17.7008 2.09139 19.2356 3.70947 20.1329 5.68596C21.0303 7.66244 21.2383 9.88293 20.7235 11.9917C20.2088 14.1004 19.0011 15.9754 17.2941 17.3161C15.587 18.6569 13.4793 19.3858 11.3086 19.3862Z" fill="black"/>
<path d="M4.84655 16.1552H0.807759C0.593528 16.1552 0.388071 16.0701 0.236587 15.9186C0.0851029 15.7671 0 15.5617 0 15.3474C0 15.1332 0.0851029 14.9278 0.236587 14.7763C0.388071 14.6248 0.593528 14.5397 0.807759 14.5397H4.0388V11.3086C4.0388 11.0944 4.1239 10.889 4.27538 10.7375C4.42687 10.586 4.63232 10.5009 4.84655 10.5009C5.06079 10.5009 5.26624 10.586 5.41773 10.7375C5.56921 10.889 5.65431 11.0944 5.65431 11.3086V15.3474C5.65431 15.5617 5.56921 15.7671 5.41773 15.9186C5.26624 16.0701 5.06079 16.1552 4.84655 16.1552Z" fill="black"/>
<path d="M8.8852 12.9242C8.77889 12.9248 8.67351 12.9044 8.57509 12.8642C8.47668 12.824 8.38716 12.7648 8.31169 12.6899C8.23598 12.6148 8.17589 12.5255 8.13488 12.427C8.09387 12.3286 8.07275 12.223 8.07275 12.1164C8.07275 12.0098 8.09387 11.9042 8.13488 11.8058C8.17589 11.7073 8.23598 11.618 8.31169 11.5429L10.5007 9.36195V5.65433C10.5007 5.4401 10.5858 5.23464 10.7373 5.08316C10.8888 4.93168 11.0942 4.84657 11.3085 4.84657C11.5227 4.84657 11.7282 4.93168 11.8796 5.08316C12.0311 5.23464 12.1162 5.4401 12.1162 5.65433V9.69313C12.1168 9.79943 12.0965 9.90482 12.0563 10.0032C12.0161 10.1016 11.9568 10.1912 11.882 10.2666L9.45871 12.6899C9.38323 12.7648 9.29372 12.824 9.1953 12.8642C9.09689 12.9044 8.9915 12.9248 8.8852 12.9242Z" fill="black"/>
</svg>
